<svg width="64" height="63" viewBox="0 0 64 63" fill="none" xmlns="http://www.w3.org/2000/svg">
<g id="Shape 2" clip-path="url(#clip0_8_223)">
<path id="Vector" d="M52.5755 16.4367C59.8393 22.9647 59.3334 33.2703 53.5033 40.3706C46.7542 48.6459 33.89 51.4373 23.4757 50.951C15.6185 50.5534 6.88245 46.1065 5.88025 37.9621C5.78344 37.8866 5.71057 37.7577 5.66164 37.5755C2.82105 25.3362 14.2468 17.6674 24.1837 13.7555C33.2981 10.148 44.6803 9.24083 52.5755 16.4367ZM28.6924 14.1904C18.8242 17.0751 4.55583 24.5271 7.42413 36.9231C7.49752 37.1965 7.44853 37.415 7.35874 37.6152C9.34269 49.4703 25.0425 49.9704 34.6249 48.1599C45.2158 46.1765 58.0678 38.7144 55.986 26.094C53.9631 13.452 38.6781 11.2622 28.6924 14.1904ZM48.7651 26.4627C49.4014 27.229 48.2149 28.2359 47.4839 27.5714C37.9898 18.6966 31.6104 31.6104 25.0578 36.6072C21.0234 39.7035 14.5611 40.8933 11.0371 36.1868C10.5281 35.5738 11.4845 34.7523 12.0702 35.3035C20.4581 43.586 28.0909 29.4068 33.8096 25.2864C38.4853 21.8526 44.8512 21.5333 48.7651 26.4627ZM48.0448 40.0868C46.6737 42.598 43.1143 44.4164 40.3874 44.9249C39.8538 45.0222 39.7152 44.2387 40.1852 44.0647C41.5952 43.5428 42.9236 42.9843 44.1379 42.1341C45.3341 41.324 46.1584 40.2508 47.2094 39.3275C47.6697 38.9567 48.3191 39.5846 48.0448 40.0868ZM46.5521 37.7341C45.744 39.536 44.0973 40.9136 42.3037 41.7444C41.8566 41.9767 41.4602 41.2218 41.9073 40.9895C43.4969 40.0672 44.5692 38.7686 45.5094 37.2184C45.8783 36.6144 46.8574 37.0534 46.5521 37.7341ZM17.0086 23.0901C15.8254 23.7618 14.6504 24.1968 13.663 25.1967C12.6576 26.2368 11.9426 27.5032 11.572 28.876C11.4201 29.4331 10.5732 29.2457 10.7071 28.7286C11.3261 25.9282 13.5949 22.6172 16.684 22.175C17.1589 22.0995 17.415 22.8395 17.0086 23.0901ZM18.5244 24.2989C16.845 25.4214 15.5148 26.7486 14.3804 28.4041C14.0475 28.9281 13.2218 28.3655 13.4961 27.8632C14.4983 25.9561 16.013 24.3269 17.769 23.1426C18.4642 22.6849 19.2783 23.8195 18.5244 24.2989Z" fill="#8A542E"/>
</g>
<defs>
<clipPath id="clip0_8_223">
<rect width="46.5157" height="48.7308" fill="white" transform="translate(0 42.4429) rotate(-65.8453)"/>
</clipPath>
</defs>
</svg>
